<?xml version="1.0" encoding="UTF-8" standalone="no"?>
<!DOCTYPE svg PUBLIC "-//W3C//DTD SVG 1.1//EN"
 "http://www.w3.org/Graphics/SVG/1.1/DTD/svg11.dtd">
<!-- Generated by graphviz version 2.50.0 (20211204.2007)
 -->
<!-- Title: workflow Pages: 1 -->
<svg width="409pt" height="202pt"
 viewBox="0.00 0.00 409.00 202.00" xmlns="http://www.w3.org/2000/svg" xmlns:xlink="http://www.w3.org/1999/xlink">
<g id="graph0" class="graph" transform="scale(1 1) rotate(0) translate(4 198)">
<title>workflow</title>
<polygon fill="white" stroke="transparent" points="-4,4 -4,-198 405,-198 405,4 -4,4"/>
<!-- place_21c50805b553b7a40e48394a5d77d442587ddee2 -->
<g id="node1" class="node">
<title>place_21c50805b553b7a40e48394a5d77d442587ddee2</title>
<ellipse fill="lightblue" stroke="#333333" cx="36" cy="-68" rx="36" ry="36"/>
<text text-anchor="middle" x="36" y="-65.8" font-family="Arial" font-size="9.00">created</text>
</g>
<!-- place_21c50805b553b7a40e48394a5d77d442587ddee2&#45;&gt;place_21c50805b553b7a40e48394a5d77d442587ddee2 -->
<g id="edge1" class="edge">
<title>place_21c50805b553b7a40e48394a5d77d442587ddee2&#45;&gt;place_21c50805b553b7a40e48394a5d77d442587ddee2</title>
<path fill="none" stroke="#333333" d="M20.64,-100.69C20.31,-112.43 25.43,-122 36,-122 45,-122 50.05,-115.06 51.15,-105.75"/>
<polygon fill="#333333" stroke="#333333" points="52.9,-105.76 51.36,-100.69 49.4,-105.61 52.9,-105.76"/>
<text text-anchor="middle" x="36" y="-124.8" font-family="Arial" font-size="9.00">create_order</text>
</g>
<!-- place_cb35c602b5d1a79a88963392fe5ecb5df47409b6 -->
<g id="node2" class="node">
<title>place_cb35c602b5d1a79a88963392fe5ecb5df47409b6</title>
<ellipse fill="none" stroke="#333333" cx="202" cy="-158" rx="36" ry="36"/>
<text text-anchor="middle" x="202" y="-155.8" font-family="Arial" font-size="9.00">validated</text>
</g>
<!-- place_21c50805b553b7a40e48394a5d77d442587ddee2&#45;&gt;place_cb35c602b5d1a79a88963392fe5ecb5df47409b6 -->
<g id="edge2" class="edge">
<title>place_21c50805b553b7a40e48394a5d77d442587ddee2&#45;&gt;place_cb35c602b5d1a79a88963392fe5ecb5df47409b6</title>
<path fill="none" stroke="#333333" d="M67.85,-84.93C95.59,-100.15 136.34,-122.52 165.45,-138.49"/>
<polygon fill="#333333" stroke="#333333" points="164.79,-140.12 170.01,-140.99 166.47,-137.06 164.79,-140.12"/>
<text text-anchor="middle" x="119" y="-130.8" font-family="Arial" font-size="9.00">confirm_order</text>
</g>
<!-- place_45a6f9adb1df3a78aafc71391c7d3bfa7680229b -->
<g id="node4" class="node">
<title>place_45a6f9adb1df3a78aafc71391c7d3bfa7680229b</title>
<ellipse fill="none" stroke="#333333" cx="202" cy="-68" rx="36" ry="36"/>
<text text-anchor="middle" x="202" y="-65.8" font-family="Arial" font-size="9.00">expired</text>
</g>
<!-- place_21c50805b553b7a40e48394a5d77d442587ddee2&#45;&gt;place_45a6f9adb1df3a78aafc71391c7d3bfa7680229b -->
<g id="edge3" class="edge">
<title>place_21c50805b553b7a40e48394a5d77d442587ddee2&#45;&gt;place_45a6f9adb1df3a78aafc71391c7d3bfa7680229b</title>
<path fill="none" stroke="#333333" d="M72.18,-68C98.12,-68 133.47,-68 160.57,-68"/>
<polygon fill="#333333" stroke="#333333" points="160.88,-69.75 165.88,-68 160.88,-66.25 160.88,-69.75"/>
<text text-anchor="middle" x="119" y="-70.8" font-family="Arial" font-size="9.00">expire_order</text>
</g>
<!-- place_140e7351379dcf91c8a2461ed5cf53e1b9d1414b -->
<g id="node5" class="node">
<title>place_140e7351379dcf91c8a2461ed5cf53e1b9d1414b</title>
<ellipse fill="none" stroke="#333333" cx="365" cy="-36" rx="36" ry="36"/>
<text text-anchor="middle" x="365" y="-33.8" font-family="Arial" font-size="9.00">canceled</text>
</g>
<!-- place_21c50805b553b7a40e48394a5d77d442587ddee2&#45;&gt;place_140e7351379dcf91c8a2461ed5cf53e1b9d1414b -->
<g id="edge4" class="edge">
<title>place_21c50805b553b7a40e48394a5d77d442587ddee2&#45;&gt;place_140e7351379dcf91c8a2461ed5cf53e1b9d1414b</title>
<path fill="none" stroke="#333333" d="M67.66,-50.74C93.1,-37.47 130.7,-20.21 166,-13 220.68,-1.83 285.04,-13.86 325.18,-24.29"/>
<polygon fill="#333333" stroke="#333333" points="325.16,-26.1 330.44,-25.69 326.06,-22.71 325.16,-26.1"/>
<text text-anchor="middle" x="202" y="-15.8" font-family="Arial" font-size="9.00">cancel_order</text>
</g>
<!-- place_f957097d7a22775f6bea41b46cae4d14274dac9f -->
<g id="node3" class="node">
<title>place_f957097d7a22775f6bea41b46cae4d14274dac9f</title>
<ellipse fill="none" stroke="#333333" cx="365" cy="-158" rx="36" ry="36"/>
<text text-anchor="middle" x="365" y="-155.8" font-family="Arial" font-size="9.00">finished</text>
</g>
<!-- place_cb35c602b5d1a79a88963392fe5ecb5df47409b6&#45;&gt;place_f957097d7a22775f6bea41b46cae4d14274dac9f -->
<g id="edge5" class="edge">
<title>place_cb35c602b5d1a79a88963392fe5ecb5df47409b6&#45;&gt;place_f957097d7a22775f6bea41b46cae4d14274dac9f</title>
<path fill="none" stroke="#333333" d="M238.33,-158C263.5,-158 297.37,-158 323.61,-158"/>
<polygon fill="#333333" stroke="#333333" points="323.75,-159.75 328.75,-158 323.75,-156.25 323.75,-159.75"/>
<text text-anchor="middle" x="283.5" y="-160.8" font-family="Arial" font-size="9.00">pay_order</text>
</g>
<!-- place_cb35c602b5d1a79a88963392fe5ecb5df47409b6&#45;&gt;place_140e7351379dcf91c8a2461ed5cf53e1b9d1414b -->
<g id="edge6" class="edge">
<title>place_cb35c602b5d1a79a88963392fe5ecb5df47409b6&#45;&gt;place_140e7351379dcf91c8a2461ed5cf53e1b9d1414b</title>
<path fill="none" stroke="#333333" d="M231.41,-136.47C259.46,-115.21 302.3,-82.76 331.64,-60.52"/>
<polygon fill="#333333" stroke="#333333" points="332.94,-61.73 335.87,-57.32 330.83,-58.94 332.94,-61.73"/>
<text text-anchor="middle" x="283.5" y="-117.8" font-family="Arial" font-size="9.00">cancel_order</text>
</g>
</g>
</svg>
